<?xml version="1.0" encoding="UTF-8"?>
<svg id="Layer_2" data-name="Layer 2" xmlns="http://www.w3.org/2000/svg" viewBox="0 0 574.34 215.49">
  <defs>
    <style>
      .cls-1 {
        fill: none;
      }

      .cls-2 {
        fill: #8338ec;
      }

      .cls-3 {
        fill: #3a86ff;
      }

      .cls-4 {
        fill: #ff006e;
      }

      .cls-5 {
        fill: #fb5607;
      }

      .cls-6 {
        fill: #00bd00;
      }
    </style>
  </defs>
  <g id="_Layer_" data-name="&amp;lt;Layer&amp;gt;">
    <g>
      <g>
        <g>
          <path class="cls-4" d="M40.45,32.26h19.71v89.6h-20.99l-19.07-49.79h-1.28l.9,49.79H0V32.26h20.99l19.07,50.82h1.28l-.9-50.82Z"/>
          <path class="cls-4" d="M66.69,121.86v-3.2l17.79-86.4,34.05.13,17.79,86.27v3.2h-21.12l-3.2-20.35h-20.99l-3.2,20.35h-21.12ZM101.5,26.11c5.89,0,10.54-.62,13.95-1.86,3.41-1.24,6.19-2.75,8.32-4.54v-5.12h-1.02c-2.05,1.37-4.86,2.41-8.45,3.14-3.58.73-7.85,1.09-12.8,1.09s-9.22-.36-12.8-1.09c-3.58-.72-6.4-1.77-8.45-3.14h-1.02v5.12c2.13,1.79,4.91,3.31,8.32,4.54,3.41,1.24,8.06,1.86,13.95,1.86ZM122.88,0l1.02.26v7.17c-2.22,1.37-4.91,2.52-8.06,3.46-3.16.94-6.42,1.69-9.79,2.24-3.37.56-6.57.94-9.6,1.15-3.03.21-5.57.32-7.62.32v-5.12c2.82,0,6.29-.32,10.43-.96,4.14-.64,8.32-1.66,12.54-3.07,4.22-1.41,7.91-3.22,11.07-5.44ZM93.7,83.84h15.62l-5.12-32.38h-5.38l-5.12,32.38Z"/>
          <path class="cls-4" d="M183.17,32.26h19.71v89.6h-20.99l-19.07-49.79h-1.28l.9,49.79h-19.71V32.26h20.99l19.07,50.82h1.28l-.9-50.82Z"/>
          <path class="cls-4" d="M211.33,77.06c0-10.67,1.9-19.41,5.7-26.24,3.8-6.83,8.87-11.86,15.23-15.1,6.36-3.24,13.38-4.86,21.06-4.86,4.18,0,7.94.41,11.26,1.22,3.33.81,6.16,1.79,8.51,2.94,2.35,1.15,4.03,2.28,5.06,3.39v20.61h-2.56c-.94-1.54-2.37-3.03-4.29-4.48-1.92-1.45-4.18-2.64-6.78-3.58-2.6-.94-5.48-1.41-8.64-1.41-4.95,0-9.2,1-12.74,3.01-3.54,2.01-6.23,5.06-8.06,9.15-1.84,4.1-2.75,9.22-2.75,15.36s.83,11.05,2.5,15.23c1.66,4.18,4.12,7.36,7.36,9.54,3.24,2.18,7.12,3.26,11.65,3.26,1.28,0,2.43-.13,3.46-.38,1.02-.26,1.83-.68,2.43-1.28v-17.92h-18.43v-17.66h36.86v44.93c-3.67,3.67-7.87,6.34-12.61,8-4.74,1.66-9.88,2.5-15.42,2.5-5.04,0-9.88-.92-14.53-2.75-4.65-1.83-8.79-4.63-12.42-8.38-3.63-3.75-6.51-8.53-8.64-14.34-2.13-5.8-3.2-12.71-3.2-20.74Z"/>
          <path class="cls-2" d="M287.74,75.14h50.56v5.12h-50.56v-5.12Z"/>
          <path class="cls-3" d="M347.9,121.86V32.26h30.59l8.83,51.2h.77l8.7-51.2h30.59v89.6h-19.71l.64-61.7h-1.28l-12.29,61.7h-14.21l-12.29-61.7h-1.28l.64,61.7h-19.71Z"/>
          <path class="cls-3" d="M499.78,29.76c1.58-1.66,2.37-4.33,2.37-8h7.3c0,3.67-.79,6.7-2.37,9.09-1.58,2.39-3.73,4.1-6.46,5.12v54.14c0,6.14-.92,11.35-2.75,15.62-1.84,4.27-4.27,7.68-7.3,10.24-3.03,2.56-6.38,4.42-10.05,5.57-3.67,1.15-7.34,1.73-11.01,1.73s-7.34-.58-11.01-1.73c-3.67-1.15-7.02-3.01-10.05-5.57-3.03-2.56-5.46-5.97-7.3-10.24-1.84-4.27-2.75-9.47-2.75-15.62v-57.86h20.48v55.04c0,2.99.34,5.65,1.02,8,.68,2.35,1.81,4.18,3.39,5.5,1.58,1.32,3.65,1.98,6.21,1.98s4.61-.66,6.14-1.98c1.54-1.32,2.67-3.16,3.39-5.5.72-2.35,1.09-5.01,1.09-8v-55.04h12.42c3.24,0,5.65-.83,7.23-2.5Z"/>
          <path class="cls-3" d="M504.7,121.86v-3.2l17.79-86.4,34.05.13,17.79,86.27v3.2h-21.12l-3.2-20.35h-20.99l-3.2,20.35h-21.12ZM531.71,83.84h15.62l-5.12-32.38h-5.38l-5.12,32.38Z"/>
        </g>
        <g>
          <path class="cls-5" d="M16.07,156.13h4.8v28h-5.72l-7.76-19.04h-.48l.2,19.04H2.27v-28h5.72l7.8,19.24h.48l-.2-19.24Z"/>
          <path class="cls-5" d="M23.43,184.13v-.88l6.16-27.12,9.28.04,6.2,27.08v.88h-5.12l-1.56-7.68h-8.28l-1.56,7.68h-5.12ZM28.47,149.81c1.09.67,2.36,1.22,3.8,1.66,1.44.44,2.86.77,4.26.98,1.4.21,2.58.32,3.54.32v1.36c-.72,0-1.59-.03-2.62-.1-1.03-.07-2.11-.19-3.24-.38-1.13-.19-2.23-.43-3.3-.72-1.07-.29-1.99-.67-2.76-1.12v-1.92l.32-.08ZM30.83,172.13h6.8l-2.28-11.36h-2.2l-2.32,11.36Z"/>
          <path class="cls-5" d="M45.51,170.13c0-3.39.55-6.15,1.64-8.28,1.09-2.13,2.53-3.7,4.3-4.7,1.77-1,3.7-1.5,5.78-1.5s4.01.5,5.78,1.5c1.77,1,3.21,2.57,4.3,4.7,1.09,2.13,1.64,4.89,1.64,8.28s-.55,6.15-1.64,8.28c-1.09,2.13-2.53,3.7-4.3,4.7-1.77,1-3.7,1.5-5.78,1.5s-4.01-.5-5.78-1.5c-1.77-1-3.21-2.57-4.3-4.7-1.09-2.13-1.64-4.89-1.64-8.28ZM50.59,170.13c0,2.19.29,4,.88,5.44.59,1.44,1.38,2.53,2.38,3.26s2.11,1.1,3.34,1.1,2.35-.37,3.38-1.1c1.03-.73,1.84-1.82,2.44-3.26.6-1.44.9-3.25.9-5.44s-.31-4.04-.92-5.48c-.61-1.44-1.43-2.52-2.44-3.24-1.01-.72-2.12-1.08-3.32-1.08s-2.38.37-3.38,1.1c-1,.73-1.79,1.82-2.38,3.26-.59,1.44-.88,3.25-.88,5.44Z"/>
          <path class="cls-5" d="M80.51,156.13h5.12l4.6,23.2h2.12l4.64-23.2h5.08v.88l-6.16,27.08-9.24.04-6.16-27.12v-.88Z"/>
          <path class="cls-5" d="M104.59,156.13h4.92v28h-4.92v-28Z"/>
          <path class="cls-5" d="M119.71,149.73h2.56c.61.96,1.4,1.72,2.36,2.28.96.56,2.12.84,3.48.84v1.4c-1.28,0-2.57-.19-3.86-.56-1.29-.37-2.33-1.04-3.1-2h-.32c-.77.96-1.81,1.63-3.1,2-1.29.37-2.59.56-3.9.56v-1.4c1.39,0,2.56-.29,3.52-.86s1.75-1.33,2.36-2.26ZM128.11,156.13v4.48h-9.36v7.72c.85-.32,1.77-.58,2.74-.78.97-.2,1.95-.32,2.94-.36.99-.04,1.91,0,2.76.1v4.28l-.36.24c-.64-.19-1.41-.29-2.32-.3-.91-.01-1.87.05-2.88.2-1.01.15-1.97.39-2.88.74v7.2h9.36v4.48h-14.28v-28h14.28ZM118.11,186.41h4.92v1.92h-4.92v-1.92Z"/>
          <path class="cls-5" d="M129.83,170.13c0-2.48.33-4.63.98-6.44.65-1.81,1.55-3.31,2.7-4.5s2.44-2.07,3.88-2.64c1.44-.57,2.93-.86,4.48-.86s2.73.15,3.7.46c.97.31,1.67.66,2.1,1.06v4.72h-.72c-.4-.43-.97-.81-1.72-1.16-.75-.35-1.67-.52-2.76-.52-1.47,0-2.77.38-3.9,1.14-1.13.76-2.03,1.87-2.68,3.34-.65,1.47-.98,3.27-.98,5.4s.32,3.93.96,5.4c.64,1.47,1.53,2.58,2.68,3.34s2.45,1.14,3.92,1.14c1.09,0,2.01-.17,2.76-.52.75-.35,1.32-.73,1.72-1.16h.72v4.72c-.43.37-1.13.72-2.1,1.04-.97.32-2.22.48-3.74.48s-3.08-.29-4.52-.86-2.72-1.45-3.84-2.64c-1.12-1.19-2.01-2.69-2.66-4.5-.65-1.81-.98-3.96-.98-6.44Z"/>
        </g>
        <g>
          <path class="cls-6" d="M428.38,169.49c0-2.48.33-4.63.98-6.44s1.55-3.31,2.7-4.5,2.44-2.07,3.88-2.64c1.44-.57,2.93-.86,4.48-.86s2.73.15,3.7.46c.97.31,1.67.66,2.1,1.06v4.72h-.72c-.4-.43-.97-.81-1.72-1.16-.75-.35-1.67-.52-2.76-.52-1.47,0-2.77.38-3.9,1.14-1.13.76-2.03,1.87-2.68,3.34s-.98,3.27-.98,5.4.32,3.93.96,5.4,1.53,2.58,2.68,3.34,2.45,1.14,3.92,1.14c1.09,0,2.01-.17,2.76-.52.75-.35,1.32-.73,1.72-1.16h.72v4.72c-.43.37-1.13.72-2.1,1.04-.97.32-2.22.48-3.74.48s-3.08-.29-4.52-.86c-1.44-.57-2.72-1.45-3.84-2.64s-2.01-2.69-2.66-4.5-.98-3.96-.98-6.44Z"/>
          <path class="cls-6" d="M467.44,178.71c-.57,1.29-1.32,2.32-2.24,3.08-.92.76-1.94,1.31-3.06,1.64s-2.23.5-3.32.5-2.24-.17-3.36-.5-2.15-.88-3.08-1.64c-.93-.76-1.69-1.79-2.26-3.08-.57-1.29-.86-2.89-.86-4.78v-18.44h4.96v17.88c0,1.15.18,2.15.54,3,.36.85.88,1.51,1.56,1.96.68.45,1.51.68,2.5.68.93,0,1.74-.23,2.42-.68.68-.45,1.2-1.11,1.56-1.96.36-.85.54-1.85.54-3v-17.88h4.96v18.44c0,1.89-.29,3.49-.86,4.78ZM456.7,149.77h.32c.19-.16.43-.3.72-.42.29-.12.57-.18.84-.18.37,0,.66.09.86.28.2.19.3.43.3.72,0,.32-.06.59-.18.82-.12.23-.33.47-.62.74-.35.29-.59.59-.74.88-.15.29-.22.63-.22,1h1.2c0-.16.07-.34.22-.54.15-.2.39-.42.74-.66.45-.29.82-.66,1.1-1.1.28-.44.41-.97.38-1.58-.03-.67-.28-1.19-.76-1.58-.48-.39-1.08-.58-1.8-.58-.56,0-1.03.08-1.4.24-.37.16-.69.33-.96.52v1.44Z"/>
          <path class="cls-6" d="M469.66,183.49v-.88l6.16-27.12,9.28.04,6.2,27.08v.88h-5.12l-1.56-7.68h-8.28l-1.56,7.68h-5.12ZM477.06,171.49h6.8l-2.28-11.36h-2.2l-2.32,11.36Z"/>
          <path class="cls-6" d="M517.66,155.49v4.52h-5.6v23.48h-4.92v-23.48h-5.72v-4.52h16.24Z"/>
          <path class="cls-6" d="M520.34,155.49h4.92v28h-5l.08-28ZM530.26,155.49c1.6,0,3.02.31,4.26.94,1.24.63,2.22,1.57,2.94,2.82.72,1.25,1.08,2.83,1.08,4.72s-.39,3.52-1.16,4.8c-.77,1.28-1.78,2.24-3.02,2.88-1.24.64-2.55.96-3.94.96h-7.88v-17.12h7.72ZM525.1,168.37h4.6c.75,0,1.4-.17,1.96-.5.56-.33.99-.81,1.3-1.44.31-.63.46-1.38.46-2.26s-.15-1.67-.46-2.3c-.31-.63-.74-1.1-1.3-1.42-.56-.32-1.21-.48-1.96-.48h-4.6v8.4ZM528.18,169.93l4.68-.2,5.64,12.92v.84h-5.08l-5.24-13.56Z"/>
          <path class="cls-6" d="M540.62,169.49c0-3.39.55-6.15,1.64-8.28,1.09-2.13,2.53-3.7,4.3-4.7s3.7-1.5,5.78-1.5,4.01.5,5.78,1.5,3.21,2.57,4.3,4.7c1.09,2.13,1.64,4.89,1.64,8.28s-.55,6.15-1.64,8.28c-1.09,2.13-2.53,3.7-4.3,4.7s-3.7,1.5-5.78,1.5-4.01-.5-5.78-1.5-3.21-2.57-4.3-4.7c-1.09-2.13-1.64-4.89-1.64-8.28ZM545.7,169.49c0,2.19.29,4,.88,5.44.59,1.44,1.38,2.53,2.38,3.26s2.11,1.1,3.34,1.1,2.35-.37,3.38-1.1,1.84-1.82,2.44-3.26c.6-1.44.9-3.25.9-5.44s-.31-4.04-.92-5.48c-.61-1.44-1.43-2.52-2.44-3.24-1.01-.72-2.12-1.08-3.32-1.08s-2.38.37-3.38,1.1c-1,.73-1.79,1.82-2.38,3.26-.59,1.44-.88,3.25-.88,5.44ZM546.14,149.17c1.09.67,2.36,1.22,3.8,1.66,1.44.44,2.86.77,4.26.98,1.4.21,2.58.32,3.54.32v1.36c-.72,0-1.59-.03-2.62-.1-1.03-.07-2.11-.19-3.24-.38-1.13-.19-2.23-.43-3.3-.72-1.07-.29-1.99-.67-2.76-1.12v-1.92l.32-.08ZM552.3,155.01c.96,0,1.79.05,2.48.14.69.09,1.31.19,1.84.3.53.11,1.05.16,1.56.16.85,0,1.47-.29,1.86-.88.39-.59.58-1.43.58-2.52h2c0,1.44-.34,2.59-1.02,3.46-.68.87-1.74,1.3-3.18,1.3l-2.2-.04-3.92-1.92ZM557.98,156.81h1.08v.72h-1.08v-.72Z"/>
          <path class="cls-6" d="M567.22,155.49h4.92v28h-4.92v-28Z"/>
        </g>
      </g>
      <rect class="cls-1" y=".26" width="572.14" height="215.23"/>
    </g>
  </g>
</svg>